<svg xmlns="http://www.w3.org/2000/svg" version="1.1" xmlns:xlink="http://www.w3.org/1999/xlink" xmlns:svgjs="http://svgjs.dev/svgjs" width="1000" height="3430" viewBox="0 0 1000 3430"><g transform="matrix(1,0,0,1,-0.263879808211243,1.3886639676113646)"><svg viewBox="0 0 72 247" data-background-color="#ffffff" preserveAspectRatio="xMidYMid meet" height="3430" width="1000" xmlns="http://www.w3.org/2000/svg" xmlns:xlink="http://www.w3.org/1999/xlink"><g id="tight-bounds" transform="matrix(1,0,0,1,0.018999346191208133,-0.09999999999999432)"><svg viewBox="0 0 71.96200130761763 247.2" height="247.2" width="71.96200130761763"><g><svg></svg></g><g><svg viewBox="0 0 71.96200130761763 247.2" height="247.2" width="71.96200130761763"><g transform="matrix(1,0,0,1,0,47.215199999999996)"><svg viewBox="0 0 71.96200130761763 152.7696" height="152.7696" width="71.96200130761763"><g><svg viewBox="0 0 71.96200130761763 152.7696" height="152.7696" width="71.96200130761763"><g><svg viewBox="0 0 92.17975806514286 195.69028809400209" height="152.7696" width="71.96200130761763"><g><svg viewBox="0 0 92.17975806514286 195.69028809400209" height="195.69028809400209" width="92.17975806514286"><g id="textblocktransform"><svg viewBox="0 0 92.17975806514286 195.69028809400209" height="195.69028809400209" width="92.17975806514286" id="textblock"><g><svg viewBox="0 0 92.17975806514286 151.825483872" height="151.825483872" width="92.17975806514286"><g transform="matrix(1,0,0,1,0,0)"><svg width="92.17975806514286" viewBox="3.8299999237060547 -35.54999923706055 21.59000015258789 35.54999923706055" height="151.825483872" data-palette-color="#ffffff"><path d="M11.79 0L3.83 0 3.83-35.55 12.3-35.55Q18.53-35.55 21.97-31.65 25.42-27.76 25.42-20.7L25.42-20.7 25.42-14.75Q25.42-7.69 21.92-3.85 18.43 0 11.79 0L11.79 0ZM12.3-31.69L8.3-31.69 8.3-3.83 11.89-3.83Q16.6-3.83 18.77-6.53 20.95-9.23 21-14.53L21-14.53 21-20.83Q21-26.44 18.84-29.06 16.67-31.69 12.3-31.69L12.3-31.69Z" opacity="1" transform="matrix(1,0,0,1,0,0)" fill="#ffffff" class="wordmark-text-0" data-fill-palette-color="primary" id="text-0"></path></svg></g></svg></g><g transform="matrix(1,0,0,1,0,187.66783680256628)"><svg viewBox="0 0 92.17975806514286 8.022451291435797" height="8.022451291435797" width="92.17975806514286"><g transform="matrix(1,0,0,1,0,0)"><svg width="92.17975806514286" viewBox="0 -35.79999923706055 411.32000732421875 35.79999923706055" height="8.022451291435797" data-palette-color="#ffffff"><path d="M25.25-2.15L31.5-2.15 31.5 0 0 0 0-2.15 6.4-2.15Q4-3.4 2-5.25L2-5.25 5.7-9.7Q11-5.1 16.7-5.1L16.7-5.1Q19.55-5.1 21.23-6.33 22.9-7.55 22.9-9.58 22.9-11.6 21.33-12.73 19.75-13.85 15.9-14.78 12.05-15.7 10.05-16.48 8.05-17.25 6.5-18.5L6.5-18.5Q3.4-20.85 3.4-25.7 3.4-30.55 6.93-33.18 10.45-35.8 15.65-35.8L15.65-35.8Q19-35.8 22.3-34.7 25.6-33.6 28-31.6L28-31.6 24.85-27.15Q23.3-28.55 20.65-29.45 18-30.35 15.43-30.35 12.85-30.35 11.2-29.3 9.55-28.25 9.55-26.13 9.55-24 11.2-22.88 12.85-21.75 18.23-20.45 23.6-19.15 26.33-16.8 29.05-14.45 29.05-10.2L29.05-10.2Q29.05-5.05 25.25-2.15L25.25-2.15ZM62.05-2.15L73.5-2.15 73.5 0 31.5 0 31.5-2.15 42.95-2.15Q38.85-4.5 36.47-8.6 34.1-12.7 34.1-17.75L34.1-17.75Q34.1-25.45 39.4-30.63 44.7-35.8 52.5-35.8 60.3-35.8 65.6-30.63 70.9-25.45 70.9-17.75L70.9-17.75Q70.9-12.75 68.52-8.6 66.15-4.45 62.05-2.15L62.05-2.15ZM61.27-26.7Q57.7-30.4 52.5-30.4 47.3-30.4 43.72-26.7 40.15-23 40.15-17.73 40.15-12.45 43.72-8.75 47.3-5.05 52.5-5.05 57.7-5.05 61.27-8.75 64.85-12.45 64.85-17.73 64.85-23 61.27-26.7ZM84.25-2.15L103.7-2.15 103.7 0 73.5 0 73.5-2.15 78.34-2.15 78.34-34.95 101.65-34.95 101.59-29.45 84.25-29.45 84.25-19.85 99.75-19.85 99.75-14.4 84.25-14.4 84.25-2.15ZM121.74-2.15L133.89-2.15 133.89 0 103.69 0 103.69-2.15 115.84-2.15 115.84-29.55 105.24-29.55 105.24-34.95 132.34-34.95 132.34-29.55 121.74-29.55 121.74-2.15ZM174.24-2.15L186.29-2.15 186.29 0 167.64 0 160.29-23.95 159.89-23.95 152.54 0 133.89 0 133.89-2.15 145.94-2.15 134.49-34.95 140.84-34.95 149.64-9.8 157.44-34.95 162.74-34.95 170.54-9.8 179.34-34.95 185.69-34.95 174.24-2.15ZM220.79-2.15L226.59-2.15 226.59 0 215.44 0 211.94-7.95 194.44-7.95 190.94 0 179.79 0 179.79-2.15 185.59-2.15 200.04-34.95 206.34-34.95 220.79-2.15ZM196.84-13.4L209.54-13.4 203.19-27.8 196.84-13.4ZM254.54-2.15L259.38-2.15 259.38 0 248.59 0 240.24-11.75 232.49-11.75 232.49 0 221.74 0 221.74-2.15 226.59-2.15 226.59-34.95 239.59-34.95Q247.59-34.95 251.04-32.25 254.49-29.55 254.49-23.6L254.49-23.6Q254.49-14.95 246.94-12.7L246.94-12.7 254.54-2.15ZM239.84-17.1Q244.84-17.1 246.64-18.65 248.44-20.2 248.44-23.63 248.44-27.05 246.59-28.33 244.74-29.6 239.99-29.6L239.99-29.6 232.49-29.6 232.49-17.1 239.84-17.1ZM258.13-2.15L262.98-2.15 262.98-34.95 287.53-34.95 287.53-29.4 268.88-29.4 268.88-20.15 285.63-20.15 285.63-14.9 268.88-14.9 268.88-5.55 288.13-5.55 288.13-2.15 292.98-2.15 292.98 0 258.13 0 258.13-2.15ZM290.83-2.15L304.53-2.15 304.53 0 290.83 0 290.83-2.15ZM332.08-2.15L343.63-2.15 343.63 0 304.53 0 304.53-2.15 309.38-2.15 309.38-34.95 321.38-34.95Q330.78-34.95 335.83-30.38 340.88-25.8 340.88-17.5L340.88-17.5Q340.88-6.35 332.08-2.15L332.08-2.15ZM334.93-17.5L334.93-17.5Q334.93-29.5 321.18-29.5L321.18-29.5 315.28-29.5 315.28-5.55 321.83-5.55Q328.18-5.55 331.55-8.58 334.93-11.6 334.93-17.5ZM343.63-2.15L348.48-2.15 348.48-34.95 373.02-34.95 373.02-29.4 354.38-29.4 354.38-20.15 371.13-20.15 371.13-14.9 354.38-14.9 354.38-5.55 373.63-5.55 373.63-2.15 378.48-2.15 378.48 0 343.63 0 343.63-2.15ZM397.97-2.15L411.32-2.15 411.32 0 376.32 0 376.32-2.15 389.62-2.15 376.47-34.95 383.07-34.95 393.82-8.85 404.57-34.95 411.17-34.95 397.97-2.15Z" opacity="1" transform="matrix(1,0,0,1,0,0)" fill="#ffffff" class="slogan-text-1" data-fill-palette-color="secondary" id="text-1"></path></svg></g></svg></g></svg></g></svg></g><g></g></svg></g></svg></g></svg></g><path d="M0 41.215L0 1 71.962 1 71.962 41.215 61.273 41.215 61.273 11.689 10.689 11.689 10.689 41.215 0 41.215M0 205.985L0 246.2 71.962 246.2 71.962 205.985 61.273 205.985 61.273 235.511 10.689 235.511 10.689 205.985 0 205.985" fill="#ffffff" stroke="transparent" data-fill-palette-color="primary"></path></svg></g><defs></defs></svg><rect width="71.96200130761763" height="247.2" fill="none" stroke="none" visibility="hidden"></rect></g></svg></g></svg>